<svg width="95" height="81" viewBox="0 0 95 81" fill="none" xmlns="http://www.w3.org/2000/svg">
<path d="M10.9643 80H84.0357M47.5 57.4286V80M1 6.64286V51.7857C1 53.2823 1.69987 54.7176 2.94565 55.7758C4.19143 56.8341 5.88106 57.4286 7.64286 57.4286H87.3571C89.1189 57.4286 90.8086 56.8341 92.0543 55.7758C93.3001 54.7176 94 53.2823 94 51.7857V6.64286C94 5.14628 93.3001 3.711 92.0543 2.65275C90.8086 1.59451 89.1189 1 87.3571 1H7.64286C5.88106 1 4.19143 1.59451 2.94565 2.65275C1.69987 3.711 1 5.14628 1 6.64286Z" stroke="black"/>
</svg>
