<svg width="85" height="81" viewBox="0 0 85 81" fill="none" xmlns="http://www.w3.org/2000/svg">
<path d="M85 21.2083C83.7663 21.2083 82.5287 21.4474 81.4862 22.0453C75.625 25.421 75.625 30.0233 75.625 33.1666V34.8749H58.75M28.75 45.1249H85M56.875 45.1249V80.9999M40 79.2916C36.25 79.2916 33.4375 74.1666 33.4375 74.1666C30.625 69.0416 30.625 65.6249 30.625 60.4999V55.3749H0.625V54.5208L7.8325 28.9128C8.45268 26.7087 9.86019 24.7553 11.8332 23.3603C13.8062 21.9654 16.2326 21.2083 18.73 21.2083H23.125L28.5512 31.0961C29.1742 32.232 30.1323 33.1873 31.318 33.8548C32.5037 34.5223 33.87 34.8755 35.2638 34.8749H51.25M22.5625 14.3749C22.5625 14.3749 16.5625 10.9583 16.5625 6.68742C16.5625 5.90312 16.732 5.1265 17.0615 4.40191C17.3909 3.67731 17.8737 3.01893 18.4824 2.46434C19.0911 1.90976 19.8137 1.46984 20.609 1.1697C21.4043 0.869567 22.2567 0.715088 23.1175 0.715088C23.9783 0.715088 24.8307 0.869567 25.626 1.1697C26.4213 1.46984 27.1439 1.90976 27.7526 2.46434C28.3613 3.01893 28.8441 3.67731 29.1735 4.40191C29.503 5.1265 29.6725 5.90312 29.6725 6.68742C29.6725 10.9583 23.6875 14.3749 23.6875 14.3749H22.5625Z" stroke="black"/>
</svg>
